<?xml version="1.0" encoding="UTF-8" standalone="no"?>
<!-- Created with Inkscape (http://www.inkscape.org/) -->

<svg
   width="219.49832mm"
   height="179.06999mm"
   viewBox="0 0 219.49832 179.06999"
   version="1.1"
   id="svg1"
   xml:space="preserve"
   xmlns:xlink="http://www.w3.org/1999/xlink"
   xmlns="http://www.w3.org/2000/svg"
   xmlns:svg="http://www.w3.org/2000/svg"><defs
     id="defs1" /><g
     id="layer1"
     transform="translate(0.76834112,-66.16127)"><image
       width="219.49832"
       height="179.06999"
       preserveAspectRatio="none"
       xlink:href="piso2limpio.png"
       id="image1"
       x="-0.76834112"
       y="66.16127"
       style="opacity:0.5" /><path
       style="opacity:0.575658;fill:#000000;stroke-width:0.264999"
       d="m 32.714206,117.71599 9.479716,2.4283 -1.634434,6.21085 -9.339623,-2.38161 z"
       id="K200" /><path
       style="opacity:0.575658;fill:#000000;stroke-width:0.264999"
       d="m 31.16692,123.96622 9.479716,2.4283 -1.634434,6.21085 -9.339623,-2.38161 z"
       id="K201" /><path
       style="opacity:0.575658;fill:#000000;stroke-width:0.264999"
       d="m 29.578123,130.2071 9.479716,2.4283 -1.634434,6.21085 -9.339623,-2.38161 z"
       id="K202" /><rect
       style="opacity:0.575658;fill:#000000;stroke-width:0.264999"
       id="K203"
       width="9.9469995"
       height="5.4636788"
       x="27.530714"
       y="149.70419" /><rect
       style="opacity:0.575658;fill:#000000;stroke-width:0.17208"
       id="bano1"
       width="4.907835"
       height="4.8112803"
       x="30.059622"
       y="144.7415" /><rect
       style="opacity:0.575658;fill:#000000;stroke-width:0.264999"
       id="ascensor1"
       width="3.302"
       height="3.2360141"
       x="31.591803"
       y="140.65562" /><rect
       style="opacity:0.575658;fill:#000000;stroke-width:0.264999"
       id="ascensor2"
       width="3.302"
       height="3.2360141"
       x="37.221241"
       y="113.17979" /><rect
       style="opacity:0.575658;fill:#000000;stroke-width:0.142844"
       id="bano2"
       width="3.983"
       height="4.0848279"
       x="32.386116"
       y="160.40851" /><rect
       style="opacity:0.575658;fill:#000000;stroke-width:0.264999"
       id="ascensor3"
       width="3.302"
       height="3.2360141"
       x="28.93453"
       y="160.55321" /><rect
       style="opacity:0.575658;fill:#000000;stroke-width:0.264999"
       id="ascensor4"
       width="3.302"
       height="3.2360141"
       x="127.47702"
       y="205.19307" /><rect
       style="opacity:0.575658;fill:#000000;stroke-width:0.264999"
       id="ascensor5"
       width="3.302"
       height="3.2360141"
       x="188.05336"
       y="166.88855" /><rect
       style="opacity:0.575658;fill:#000000;stroke-width:0.264999"
       id="ascensor6"
       width="3.302"
       height="3.2360141"
       x="125.86802"
       y="162.69763" /><rect
       style="opacity:0.575658;fill:#000000;stroke-width:0.264999"
       id="ascensor7"
       width="3.302"
       height="3.2360141"
       x="154.5565"
       y="83.466064" /><path
       style="opacity:0.575658;fill:#000000;stroke-width:0.264999"
       d="m 145.95713,72.885798 7.3783,2.568396 -4.06273,12.001415 -7.37831,-2.334905 z"
       id="labaltatension" /><rect
       style="opacity:0.575658;fill:#000000;stroke-width:0.264999"
       id="E203"
       width="7.165"
       height="8.3872204"
       x="157.59824"
       y="77.71846" /><rect
       style="opacity:0.575658;fill:#000000;stroke-width:0.264999"
       id="E202"
       width="7.165"
       height="8.3872204"
       x="164.76344"
       y="77.730614" /><rect
       style="opacity:0.575658;fill:#000000;stroke-width:0.264999"
       id="E201"
       width="7.165"
       height="8.3872204"
       x="171.94229"
       y="77.726006" /><rect
       style="opacity:0.575658;fill:#000000;stroke-width:0.264999"
       id="deptominas"
       width="18.424999"
       height="13.142179"
       x="147.49394"
       y="112.19192" /><path
       id="casino"
       style="opacity:0.575658;fill:#000000;stroke-width:0.264999"
       d="M 118.45177 143.11988 L 118.45177 160.35139 L 130.87375 160.35139 L 130.87375 167.68272 L 142.31491 167.68272 L 142.31491 143.11988 L 118.45177 143.11988 z " /><path
       id="biblioteca"
       style="opacity:0.575658;fill:#000000;stroke-width:0.199373"
       d="m 124.39874,223.05923 v -10.78654 l 8.28337,0.005 v -8.37734 l 9.04447,0.0117 v 19.14734 z" /><rect
       style="opacity:0.575658;fill:#000000;stroke-width:0.264999"
       id="deptoobras"
       width="17.792999"
       height="9.7895832"
       x="42.887909"
       y="213.99721" /><rect
       style="opacity:0.575658;fill:#000000;stroke-width:0.305283"
       id="deptoelectrica"
       width="23.613832"
       height="9.7895832"
       x="60.681137"
       y="214.06335" /><rect
       style="opacity:0.575658;fill:#000000;stroke-width:0.3366"
       id="deptos"
       width="28.707001"
       height="9.7895832"
       x="84.295204"
       y="214.06334" /><rect
       style="opacity:0.575658;fill:#000000;stroke-width:0.272884"
       id="rect4"
       width="3.6954746"
       height="8.0915852"
       x="190.17903"
       y="170.39305" /><rect
       style="opacity:0.575658;fill:#000000;stroke-width:0.272884"
       id="B202"
       width="3.6949999"
       height="8.0915852"
       x="193.88931"
       y="170.38371" /><rect
       style="opacity:0.575658;fill:#000000;stroke-width:0.264998"
       id="B201"
       width="3.4849999"
       height="8.0915852"
       x="197.58936"
       y="170.41217" /><rect
       style="opacity:0.575658;fill:#000000;stroke-width:0.264999"
       id="CIAC"
       width="4.9109998"
       height="28.671337"
       x="190.52982"
       y="193.89606" /></g></svg>
