<?xml version="1.0" encoding="UTF-8" standalone="no"?>
<!-- Created with Inkscape (http://www.inkscape.org/) -->

<svg
   width="216.95833mm"
   height="178.01166mm"
   viewBox="0 0 216.95833 178.01166"
   version="1.1"
   id="svg1"
   xml:space="preserve"
   xmlns:xlink="http://www.w3.org/1999/xlink"
   xmlns="http://www.w3.org/2000/svg"
   xmlns:svg="http://www.w3.org/2000/svg"><defs
     id="defs1" /><g
     id="layer1"
     transform="translate(213.51875,14.657912)"><image
       width="216.95833"
       height="178.01166"
       preserveAspectRatio="none"
       xlink:href="piso3limpio.png"
       id="image1"
       x="-213.51875"
       y="-14.657912"
       style="opacity:0.467" /><path
       style="opacity:0.575658;fill:#000000;stroke-width:0.264999"
       d="m -185.91466,46.936388 8.88253,2.377479 -1.78311,6.059273 -8.65139,-2.29493 z"
       id="K302" /><path
       style="opacity:0.575658;fill:#000000;stroke-width:0.266254"
       d="m -184.25357,40.822843 8.93384,2.377479 -1.70098,6.075783 -8.89862,-2.360971 z"
       id="K301" /><path
       style="opacity:0.575658;fill:#000000;stroke-width:0.264999"
       d="m -182.66788,34.907111 9.11367,2.294927 -1.7666,5.993232 -8.93206,-2.393992 z"
       id="K300" /><rect
       style="opacity:0.575658;fill:#000000;stroke-width:0.264999"
       id="K303"
       width="8.3870001"
       height="6.3729668"
       x="-187.79575"
       y="61.586544" /><rect
       style="opacity:0.575658;fill:#000000;stroke-width:0.264999"
       id="K304"
       width="8.3870001"
       height="6.3729668"
       x="-187.83865"
       y="67.976486" /><rect
       style="opacity:0.575658;fill:#000000;stroke-width:0.264999"
       id="K305"
       width="8.3870001"
       height="6.3729668"
       x="-187.76054"
       y="84.292068" /><rect
       style="opacity:0.575658;fill:#000000;stroke-width:0.264999"
       id="K306"
       width="8.3870001"
       height="6.3729668"
       x="-187.7477"
       y="90.671104" /><rect
       style="opacity:0.575658;fill:#000000;stroke-width:0.283555"
       id="K307"
       width="11.835"
       height="2.4145498"
       x="-187.78993"
       y="97.084282" /><rect
       style="opacity:0.575658;fill:#000000;stroke-width:0.264999"
       id="ascensor1"
       width="3.8"
       height="3.6811988"
       x="-183.04001"
       y="78.955368" /><rect
       style="opacity:0.575658;fill:#000000;stroke-width:0.264999"
       id="ascensor2"
       width="3.8"
       height="3.6811988"
       x="-182.23523"
       y="57.856773" /><rect
       style="opacity:0.575658;fill:#000000;stroke-width:0.264999"
       id="ascensor3"
       width="3.8"
       height="3.6811988"
       x="-176.26241"
       y="30.460876" /><rect
       style="opacity:0.575658;fill:#000000;stroke-width:0.264999"
       id="ascensor4"
       width="3.8"
       height="3.6811988"
       x="-85.709694"
       y="122.83095" /><rect
       style="opacity:0.575658;fill:#000000;stroke-width:0.264999"
       id="ascensor5"
       width="3.8"
       height="3.6811988"
       x="-87.48542"
       y="80.090004" /><rect
       style="opacity:0.575658;fill:#000000;stroke-width:0.301675"
       id="bano1"
       width="4.3319998"
       height="4.1850052"
       x="-182.09982"
       y="74.514091" /><rect
       style="opacity:0.575658;fill:#000000;stroke-width:0.301675"
       id="bano2"
       width="4.3319998"
       height="4.1850052"
       x="-176.39987"
       y="24.96508" /><rect
       style="opacity:0.575658;fill:#000000;stroke-width:0.301675"
       id="bano3"
       width="4.3319998"
       height="4.1850052"
       x="-99.747917"
       y="117.36917" /><rect
       style="opacity:0.575658;fill:#000000;stroke-width:0.301675"
       id="bano4"
       width="4.3319998"
       height="4.1850052"
       x="-83.119835"
       y="82.360214" /><rect
       style="opacity:0.575658;fill:#000000;stroke-width:0.264999"
       id="F325"
       width="4.8699999"
       height="3.3866997"
       x="-99.46254"
       y="130.07451" /><path
       id="biblioteca"
       style="opacity:0.575658;fill:#000000;stroke-width:0.264999"
       d="M -80.164099 121.46711 L -80.164099 130.2149 L -88.753756 130.2149 L -88.753756 140.90262 L -71.179118 140.90262 L -71.179118 121.46711 L -80.164099 121.46711 z " /><path
       id="F310"
       style="opacity:0.575658;fill:#000000;stroke-width:0.264999"
       d="M -80.233862 77.762803 L -80.233862 82.268988 L -78.722327 82.268988 L -78.722327 85.319965 L -70.801363 85.319965 L -70.801363 77.762803 L -80.233862 77.762803 z " /></g></svg>
